<svg xmlns="http://www.w3.org/2000/svg" viewBox="0 0 139.7 125.5">
  <path d="M93.5 20.4c-4.7 6.9-9.3 13.7-13.9 20.6-1.2 1.7-2.3 3.4-3.5 5.2-1.5 2.3-1.1 5 1 6.4 2.2 1.5 4.8.8 6.4-1.5C89 43 94.4 34.9 99.9 26.8c.4-.6.9-1.2 1.3-1.9 20.8 13.6 30.7 43.4 17.2 69.3-13.7 26.3-46.8 36.6-72.7 22.7-26.9-14.4-36.8-47.2-22.2-73.7 14.9-27 46.8-34 69.9-22.8ZM113.4 113.1l.5-.5c.2.1.4.2.5.3 1.6 1.6 3.1 3.2 4.7 4.7.7.7.6 1.1-.2 1.5-1.8-1.9-3.6-3.8-5.5-5.9ZM25.9 113c.7.4.9.8.1 1.5-1.7 1.6-3.2 3.2-4.9 4.9-.3-.3-.6-.6-1-.9 2-1.9 3.8-3.6 5.8-5.5ZM26.7 25.5c-.5.3-.8.5-1.3.8-1.7-1.8-3.4-3.6-5.5-5.7.7 0 1.4-.2 1.6 0 1.7 1.5 3.3 3.1 5.2 4.9ZM112.6 124.7c-.3.3-.6.5-1.1.9-1.5-2-3-3.9-4.4-5.9-.2-.3.1-.9.2-1.3h.5l4.8 6.3ZM129.3 85.6c.4-.2.9-.6 1.2-.5 2.2.5 4.4 1.2 6.6 1.8.1.9 0 1.4-1 1.1-2.2-.6-4.4-1.2-6.7-1.8 0-.2-.1-.4-.2-.6ZM31.6 118.1c.4.3.7.5 1.1.9-1.6 2.1-3.2 4.2-4.9 6.3-.4-.3-.7-.6-1.1-.9 1.6-2.1 3.2-4.2 4.9-6.3ZM118.4 19.7l.9.9c-1.8 1.8-3.6 3.5-5.4 5.3-.8-.4-1.1-.8-.3-1.6 1.6-1.5 3.1-3 4.8-4.6ZM129.7 105.2c-2.3-1.3-4.5-2.6-6.7-3.9.2-1 .6-1.3 1.5-.7 1.7 1 3.5 2.1 5.2 3 .9.5.7.9 0 1.6ZM12.8 94c-2.1.9-4.2 1.7-6.2 2.6-.8.4-1.2.2-1.3-.9 2.1-.9 4.2-1.8 6.4-2.7.3-.1.8.3 1.3.4 0 .2-.1.4-.2.6ZM127.4 92.3c2.4 1 4.7 1.9 7.2 2.9-.2.5-.3.9-.5 1.3-2.2-.9-4.3-1.8-6.4-2.6-1-.4-1-.8-.3-1.6ZM5.8 42.5c2 .8 4.1 1.6 6.1 2.5.4.2.5.8.8 1.2l-.4.4c-2.2-.9-4.3-1.8-6.5-2.7-.3-.1-.3-.7-.5-1.1.2 0 .3-.2.5-.3ZM20 106.4c.9.6.9 1 .2 1.6-1.9 1.4-3.7 2.8-5.6 4.2-.3-.3-.5-.6-.9-1l6.3-4.8ZM10 85.3c.1.5.2.8.4 1.3l-7.5 2.1c-.5-.8-.6-1.3.5-1.6 2.1-.5 4.3-1.2 6.6-1.8ZM138.9 77.5c.3 1 0 1.5-1 1.3-2-.3-4-.5-6-.9-.3 0-.6-.6-.9-.9.1-.1.2-.3.3-.4l7.5.9ZM138.7 59.8c0 .4.2.8.3 1.3-2.6.4-5 .7-7.6 1-.2-.7-.7-1.3.5-1.5 2.2-.3 4.5-.6 6.8-.8ZM129.8 34.1c.2.4.4.7.7 1.2-2.1 1.2-4.1 2.4-6.2 3.5-.3.1-.8-.3-1.2-.4V38c2.2-1.3 4.4-2.5 6.7-3.8ZM16.6 100.9c-2.2 1.3-4.2 2.5-6.3 3.6-.3.2-.9-.2-1.3-.3v-.5c2.2-1.3 4.4-2.6 6.8-3.9.2.4.5.7.8 1.1ZM119.3 106.7c2.1 1.6 4.1 3.2 6.1 4.7-.3.9-.6 1.3-1.5.6-1.6-1.3-3.2-2.5-4.8-3.7-.8-.6-.6-1.1.2-1.6ZM129.3 53.3c.3-.4.4-1 .8-1.1 2.1-.7 4.3-1.2 6.5-1.8.1 0 .3.2.4.3-.2.4-.3 1-.6 1.1-2.2.7-4.4 1.3-6.6 1.9-.1-.1-.3-.2-.4-.3ZM8.3 62.3c-2.3-.3-4.5-.5-6.7-.9-.4 0-.6-.7-1-1 .1-.1.2-.3.3-.4 2.3.3 4.5.6 6.8.8 1 .1 1 .6.6 1.5ZM.9 79.1c-.5-1-.3-1.4.7-1.5 2.2-.2 4.4-.6 6.6-.8.5.9.4 1.3-.6 1.5-2.2.2-4.4.6-6.7.9ZM61.5.6c.3 2.5.7 4.9 1 7.3-.9.4-1.4.5-1.5-.7-.2-1.8-.4-3.6-.7-5.4-.1-.9 0-1.4 1.2-1.2ZM133.7 42l.6 1.2c-2.2.9-4.3 1.8-6.5 2.6-.3.1-.8-.2-1.3-.4v-.5c2.3-1 4.7-2 7.1-3ZM53.6 10c-.4-.3-1-.5-1.1-.9l-1.8-6.3c.4-.1.8-.3 1.3-.4.7 2.5 1.4 4.8 2 7.2-.1.2-.3.3-.4.5ZM125.5 28l-6 4.5c-.7-.6-1.1-1-.1-1.7 1.6-1.1 3.1-2.3 4.6-3.5.8-.6 1.1-.3 1.5.6ZM14.3 27.6c.3-.4.5-.7.8-1.1 2 1.6 4 3.1 6.1 4.6-.4.8-.7 1.2-1.5.6-1.7-1.4-3.5-2.7-5.3-4.1ZM16.8 37.7c-.3.4-.4.8-.7 1.2-2.2-1.3-4.4-2.6-6.5-3.8.2-.8.4-1.4 1.3-.8 1.9 1.2 3.8 2.2 5.9 3.5ZM95.5 4.9c.5.2.8.3 1.1.5v.3c-.8 2-1.6 3.9-2.4 5.9-.4 1-.9.9-1.6.3.9-2.3 1.9-4.5 2.9-7ZM10.3 53.2c-.4.2-.8.7-1.2.6-2-.4-4-1-6-1.6-.3 0-.4-.6-.6-.9.3-.1.7-.5.9-.4 2.2.6 4.4 1.2 6.7 1.8 0 .1.1.3.2.4ZM42.6 5.3c.4.1 1.1.2 1.3.4.9 2.1 1.8 4.2 2.7 6.4-.5.2-.8.3-1.2.5-1-2.3-1.9-4.6-2.9-6.8 0-.2.1-.3.2-.5ZM77 7.9c.3-2.5.6-4.9.9-7.3 1-.3 1.4 0 1.3 1-.3 1.9-.5 3.8-.8 5.7-.1 1-.6 1-1.4.6ZM27.4 14.6c.6-1 1.1-.9 1.7-.1 1.3 1.7 2.6 3.5 3.9 5.2-.6.8-1 1-1.7 0-1.2-1.7-2.5-3.4-3.9-5.1ZM101.6 16.4l-1.2-.6c1.3-2.2 2.5-4.4 3.8-6.6.4.2.7.4 1.2.6-1.3 2.2-2.5 4.3-3.8 6.6ZM38.3 16.1c-1.2-2.1-2.5-4.3-3.7-6.5.4-.2.7-.4 1.2-.7 1.2 2 2.3 4 3.4 6 .2.3-.1.9-.2 1.3h-.6ZM108.1 20.9c-.4-.3-.7-.6-1-.9 1.4-1.9 2.7-3.7 4.2-5.4.2-.3.9-.1 1.4-.2 0 .2 0 .3.1.5-1.5 2-3 4-4.6 6ZM87.7 2.2c.2.4.6.9.5 1.3-.5 2.1-1.1 4.2-1.8 6.8-.5-.6-1.1-1-1-1.3.5-2.2 1.2-4.4 1.8-6.7.2 0 .4 0 .6-.1ZM139.7 69.4c-.4.3-.7.7-1.1.8h-6.1c-.3 0-.6-.4-1-.6.3-.2.6-.6.9-.6h6.8c.1.2.2.3.4.5ZM.4 68.9h7.5c0 .1.2.2.3.4-.3.3-.6.8-1 .8H1c-.3 0-.7-.5-1-.8l.4-.4ZM69.2 3.8v-3c0-.3.4-.5.6-.8.2.3.6.5.6.8V7c0 .2-.4.5-.7.7-.2-.3-.6-.5-.6-.8v-3Z"/>
</svg>
