<svg xmlns="http://www.w3.org/2000/svg" viewBox="0 0 663.7 434.5">
  <path d="M93.5 20.3c-4.7 6.9-9.3 13.7-13.9 20.6-1.2 1.7-2.3 3.4-3.5 5.2-1.5 2.3-1.1 5 1 6.4 2.2 1.5 4.8.8 6.4-1.5 5.5-8.1 10.9-16.2 16.4-24.3.4-.6.9-1.2 1.3-1.9 20.8 13.6 30.7 43.4 17.2 69.3-13.7 26.3-46.8 36.6-72.7 22.7-26.9-14.4-36.8-47.2-22.2-73.7 14.9-27 46.8-34 69.9-22.8ZM28.9 189.9c15.1-19.7 45.9-27.5 70.7-11.7 25.5 16.2 32.7 50.1 16 75.3-16.6 25-50.5 31.7-75.4 14.6-25.5-17.6-28.8-49.8-16.4-70.7 2.2 1.5 4.4 3 6.7 4.5L50 215.1c2.5 1.7 5.2 1.3 6.7-.9s.8-4.9-1.7-6.5l-24.9-16.8c-.4-.3-.7-.5-1.2-.8ZM50.3 328.3c1.7 5 3.4 9.8 5.1 14.7 2.3 6.5 4.5 13 6.8 19.5 1 2.7 3.3 4 5.8 3.2 2.4-.8 3.6-3.3 2.6-6.1-3.7-10.7-7.4-21.4-11.2-32.1l-.6-1.8c21.9-5.6 51.2 4.8 62.2 33.3 10.8 27.9-3.7 59.5-31.8 69.7-28.2 10.2-59.1-4.1-69.2-32.4-10.4-29.1 5.4-58.1 30.3-68ZM378.6 102.3h-13.1V71.6c0-5-2.2-7.7-6.2-8-5-.3-8.3 2.3-8.9 7.2-.1 1-.2 1.9-.2 2.9V102.3h-12.8V71.8c0-.9-.1-1.8-.3-2.7-.5-3-2.2-4.7-5.2-5.1-1.6-.2-3.3 0-4.8.3-3.1.7-4.5 3-4.9 6-.1 1-.2 2-.2 3V102.4h-12.8V54.1h12.3v6.1c.1 0 .2.2.3.3 3.1-5.3 7.7-7.7 13.7-7.7 6 0 10.7 2.1 13.1 8.1.3-.4.5-.6.6-.8 4.7-7.6 14.2-8.6 20.1-6.3 6.2 2.4 9.2 7.3 9.3 13.8.2 7.3 0 14.7 0 22v12.8ZM220.9 367.8H208c0-.1-.2-.2-.2-.3-.7-6.2-4.7-8.7-9.5-9.4-3.6-.6-7.2-.5-10.6 1-2.6 1.2-4.4 3.1-4.6 6.1-.2 2.8.8 5 3.4 6 3.3 1.3 6.8 2.2 10.3 3.1 4.7 1.3 9.6 2.3 14.2 3.8 6.6 2.1 11 6.4 11.9 13.5 1.2 10.4-3.8 18.8-13.8 22.1-9.9 3.2-19.8 3-29.2-1.8-7.2-3.7-10.6-10-10.7-18.2h13.1c.2.7.3 1.3.5 2 .9 4.5 3.7 7.1 8.1 8.1 4.3 1 8.6.9 12.8-.3 3.3-1 5.6-2.9 6.1-6.6.4-2.9-.6-5.3-3.4-6.4-3.6-1.4-7.3-2.4-11-3.4-4.2-1.2-8.4-2.1-12.6-3.3-5.7-1.7-10.2-4.9-11.7-11-1.7-6.7-.9-13.1 3.7-18.6 3.7-4.4 8.5-6.5 14.1-7.3 7.3-1.1 14.4-.7 21.1 2.8 6.9 3.6 10.5 9.4 11 17.2v1ZM220.8 212h-12.9c0-.2-.2-.4-.2-.5-1-5.4-3.4-7.9-8.8-9-3.8-.8-7.7-.7-11.3 1-2.5 1.1-4.2 3-4.5 5.8-.3 3.1.8 5.3 3.8 6.3 3.4 1.2 7 2.1 10.5 3.1 4.6 1.2 9.2 2.2 13.8 3.7 15.4 4.8 14.1 22.9 6.7 30.2-4.5 4.4-9.9 6.5-16 7.1-6.7.7-13.4.4-19.7-2.3-8.1-3.4-12.5-9.5-12.9-18.4v-1h13.1c0 .5.2.9.3 1.4 1.1 5.4 3.8 8 9.2 8.9 4.1.7 8.3.6 12.3-.7 3-1 5.1-2.8 5.6-6.1.5-3-.5-5.5-3.3-6.6-3.8-1.5-7.8-2.5-11.7-3.6-4.8-1.4-9.6-2.4-14.3-4.1-6.5-2.3-9.6-7.4-10.1-14.2-.9-11.2 6.3-20.1 18.5-21.9 6.1-.9 12.2-.8 18.1 1.5 8.4 3.3 13.4 9.2 14 18.4v.6s0 .2-.2.4ZM374.7 258.1h-12.6v-65.3h12.6v22.7c.4-.5.7-.7.8-.9 4-5.3 9.5-6.9 15.9-6.2 4.8.5 9 2.4 11.8 6.5 1.5 2.1 2.4 4.4 2.4 6.9.1 11.9.1 23.8.2 35.7 0 .1 0 .3-.1.5h-12.9v-29.6c0-1.5-.2-3-.6-4.5-.9-3.3-3.1-4.9-6.6-5.1-5.8-.2-9.7 3-10.5 9-.2 1.5-.3 3-.3 4.5v25.5ZM196.7 85.7c4.7-16.3 9.4-32.7 14.2-49h14.3c-1.1 3.1-2.1 6.2-3.1 9.2-6.3 18.3-12.5 36.6-18.7 55-.4 1.1-.9 1.6-2.1 1.5h-10.2c-.9 0-1.4-.2-1.7-1.1-7.1-21.2-14.3-42.3-21.4-63.5-.1-.3-.2-.7-.3-1.2H179q3.3 0 4.2 3.2c4.3 14.9 8.5 29.7 12.8 44.6.1.4.3.8.4 1.3h.3ZM435.5 78.2c-.2 5.7-1.6 10.9-4.6 15.8-3.1 4.9-7.4 8-13.1 9.3-4.9 1.1-9.8 1.1-14.7 0-6.8-1.5-11.6-5.6-14.5-11.8-4.6-10.1-4.2-20 1.8-29.5 3.3-5.4 8.3-8.3 14.5-9.2 4.5-.7 9.1-.7 13.5.5 8.8 2.3 13.4 8.6 15.8 16.8.8 2.6.9 5.5 1.3 8.2Zm-37.1.1c.6 2.8 1 5.8 2 8.5 1.7 4.5 5.3 6.5 10 6.5 4.6 0 8.1-2.1 9.8-6.5 2.2-5.6 2.2-11.4.2-17-1.7-4.6-5.3-6.8-10.3-6.8-4.8 0-8.4 2.4-10 7-.9 2.6-1.2 5.4-1.8 8.3ZM277.9 389.7c-.2 5.6-1.4 10.8-4.3 15.6-3.4 5.5-8.2 8.7-14.5 9.8-4.4.8-8.8.8-13.1-.1-6.6-1.4-11.5-5.1-14.5-11.1-4.8-9.9-4.7-19.7.7-29.3 3.1-5.5 7.9-8.9 14.1-10 5.2-1 10.4-1 15.5.6 8.9 2.7 13.2 9.5 15.2 18.1.5 2.1.6 4.4.9 6.6Zm-36.7-.6c.3 2.4.4 4.3.7 6 1.1 6.1 5 9.5 10.6 9.8 5.4.3 9.6-2.9 11.1-8.6 1.2-4.6 1.2-9.2-.2-13.8-1.5-5-5.2-7.8-10.1-7.9-5.5 0-9.2 2.5-10.8 7.7-.7 2.4-.9 4.9-1.3 6.8ZM625 237.5h-33.2c-.6 4.4 1.9 9.1 5.7 10.9 4 1.9 9 1.2 11.7-1.7.2-.3.6-.5.7-.8.7-1.9 2.1-2.1 4-2.1 3.4.1 6.8 0 10.7 0-1 2.2-1.6 4.1-2.7 5.8-3.5 5.6-8.6 8.8-15.2 9.7-6.5.9-12.6 0-18.2-3.6-4.4-2.8-7.3-6.7-8.6-11.7-1.8-7.2-1.8-14.3.6-21.4 2.7-8.2 10.1-13.9 18.7-14.3 3.1-.1 6.4 0 9.5.8 9.2 2.3 13.9 8.8 15.5 17.7.6 3.4.6 6.9.8 10.6Zm-13.6-8.6c0-6-4.2-10.2-9.8-10.1-5.4 0-9.6 4.5-9.5 10.1h19.4ZM367.7 393.1c-.5 8.2 6.1 13.7 13.6 11.7 2.4-.6 4.1-2.1 5.3-4.2.3-.4.9-.9 1.3-.9h12.5c-.7 1.8-1.1 3.4-1.9 4.9-3.3 5.8-8.2 9.4-14.8 10.5-6.9 1.2-13.4.3-19.3-3.6-4.3-2.8-7.1-6.6-8.4-11.5-1.7-6.7-1.7-13.4.1-20.1 2.8-10.2 11.6-16.6 23.5-15.8 7.3.5 13.3 3.2 17.3 9.6 2.8 4.5 3.8 9.4 3.9 14.6v4.9h-33.1Zm19.7-8.4c.1-5.8-4-10-9.6-10.1-6.1-.1-9.4 4.8-9.7 10.1h19.3ZM458.5 237.5h-32.9c-.8 7.9 6.5 13.9 13.9 11.5 2.2-.7 3.8-2.1 4.9-4.1.4-.8.9-1 1.8-1h12c-.5 1.5-.8 2.8-1.4 4-3.6 6.8-9.2 10.7-16.9 11.6-8.6 1-16.1-1.1-22.1-7.5-3.3-3.5-4.5-8-5-12.6-.6-5.8-.5-11.6 1.6-17.1 3.4-8.7 9.9-13.3 19.2-14 6-.4 11.8.6 16.6 4.5 5.5 4.5 7.8 10.7 8.3 17.6.1 2.3 0 4.5 0 7Zm-13.2-8.6c-.5-6.4-4.1-10.1-9.7-10.1-5.5 0-9.2 3.8-9.7 10.1h19.5ZM268.4 88.1c-.9 2.1-1.5 4-2.5 5.6-3.3 5.4-8.2 8.7-14.5 9.8-6.7 1.1-13 .3-18.8-3.4-4.5-2.8-7.5-6.7-8.8-11.9-1.7-6.5-1.7-13.1 0-19.7 2.7-10.2 11.5-16.9 23.5-16.1 7.4.5 13.5 3.3 17.5 9.9 2.3 3.7 3.4 7.7 3.6 11.9.1 2.4 0 4.7 0 7.3h-32.8c-1 5.2 3 10.9 8 11.8 4.8.9 8.9-.7 10.9-4.6.2-.4.8-.7 1.2-.7h12.6Zm-13.2-15c.5-5.3-3.8-9.8-9.1-10.1-6.8-.3-10 5.4-10.1 10.1h19.2ZM440.2 433.7v-10.5h3.8c4-.1 6.7-2.7 6.9-6.7 0-.6-.2-1.3-.4-1.9-5.6-15.9-11.2-31.8-16.7-47.6-.2-.5-.3-.9-.6-1.7h12.5c1.3 0 1.8.4 2.2 1.6 3.1 10.7 6.3 21.4 9.5 32.2.1.4.3.8.6 1.7.7-2.4 1.2-4.3 1.8-6.3l7.8-27.9c.3-1.1.7-1.3 1.8-1.3H480c.4 0 .9 0 1.5.1-1 2.8-1.9 5.5-2.9 8.2-5.5 15.5-10.9 31.1-16.4 46.6-.9 2.5-2.1 4.8-3.2 7.2-1.5 3.2-4 5.2-7.4 5.5-3.7.4-7.4.5-11.3.7ZM260.7 209.6h13.6c-1.1 3.2-2.2 6.3-3.3 9.4-5.4 15.2-10.7 30.4-16.1 45.6-.8 2.4-2 4.6-3.1 6.9-1.5 3.5-4.3 5.5-8.1 5.8-3.6.3-7.1.4-10.8.5v-10.6c1.7 0 3.3.1 4.9 0 3.9-.4 6.7-4.7 5.4-8.5-5.6-15.9-11.2-31.8-16.7-47.6-.2-.5-.3-1-.5-1.6h14.2c3.5 11.7 6.9 23.4 10.4 35h.3c3.3-11.7 6.5-23.3 9.8-35ZM505.7 224.4H493c-.9-4.7-3.5-6.3-8.2-6.3-1.6 0-3.1.1-4.6.5-2 .5-3.3 2.1-3.3 3.7 0 1.7 1 3.1 3.2 3.7 4 1.1 8.2 2 12.2 3.1 2.5.7 5 1.5 7.2 2.6 8.5 4.4 10.2 15.3 3.6 22.3-2.9 3-6.5 4.6-10.5 5.2-6.7 1.1-13.3 1.1-19.7-1.4-6.4-2.5-10.4-8.7-10-15.1h12.7c0 .3.2.6.3.9.9 4 2.6 5.5 6.7 6.1 3.1.4 6.2.5 9.1-.7 2.3-1 3.4-3.2 2.2-5.1-.6-.9-1.6-1.8-2.6-2.1-4-1.2-8.1-2.2-12.1-3.4-2.2-.6-4.5-1.3-6.6-2.2-7.8-3.2-10.5-10.8-6.7-18.4 2-3.9 5-6.8 9.2-8.2 7.8-2.6 15.6-2.3 23 1.4 5.4 2.6 7.2 7.6 7.8 13.3ZM323.3 258.1h-12.9v-30.5c-.1-4.8-2-7.6-5.8-8.3-5.1-1-9.6.9-11.1 5.3-.9 2.6-1.2 5.4-1.3 8.2-.2 7.8 0 15.7 0 23.5v1.8h-12.6v-48.4h12.1v6.6c.4-.3.6-.4.7-.6 4.3-6.7 10.8-8.1 18.1-7 8.4 1.4 12.8 6.5 13 15.2.2 11.1 0 22.2 0 33.3 0 .3 0 .6-.1.9ZM442.6 53.9h12.2v6.5c.3-.2.5-.3.6-.4 4.5-7 11.2-8.3 18.8-6.9 8 1.5 12.3 7 12.3 15.6v33.7h-13.1V71.8c0-4.9-2.1-7.7-6-8.4-4.9-.9-9.3 1.1-10.9 5.4-.8 2.3-1.2 4.9-1.3 7.4-.2 8.1 0 16.2 0 24.3v1.8h-12.6V54ZM533.7 258.1v-9.5c0-.5.6-1.1 1-1.6 7.5-8.6 15-17.1 22.5-25.7.3-.4.6-.7 1.1-1.4h-22.9v-10.3h39.3v10.2c0 .5-.5 1-.8 1.4l-21.6 24.3c-.6.6-1.1 1.3-1.9 2.2h25.2v10.4h-41.9ZM314.3 396.3h13.2c-.6 2.1-.9 4.1-1.7 6-3.5 8.3-9.8 12.9-18.8 13.2-2.9.1-5.8-.1-8.6-.7-6.8-1.4-11.4-5.7-13.7-12.1-3.2-8.6-3.1-17.4.4-25.9 3.2-7.8 9.4-11.8 17.7-12.6 3.6-.3 7.3 0 10.9.8 7.4 1.9 11.8 6.6 13.2 14 .1.6.2 1.3.3 1.9 0 .5 0 1 .2 1.6h-13c-.2-.6-.3-1.2-.5-1.8-1-3.5-3.2-5.6-6.8-5.9-3.6-.3-6.8.6-8.6 3.9-1.2 2.1-1.8 4.6-2.2 7-.7 4-.5 8.1.6 12 1.6 5.5 6 8 11.6 6.7 3.1-.7 4.5-3.1 5.3-5.9.2-.8.3-1.6.5-2.4ZM518.3 93.4v9.4c-4.6.2-9.2.8-13.7-.4-4.7-1.2-6.7-4-6.7-9.1V63.4h-6.6v-9.1h6.6V40.8h12.7v13.4h7.8v9.1h-7.8v25.8c0 3.7.5 4.3 4.3 4.4h3.5ZM355.1 258.6c-4.8.1-9.5.8-14.2-.6-4-1.2-6.1-3.7-6.1-7.9-.1-9.7 0-19.3 0-29v-2h-6.7V210h6.6v-13.5h12.6v13.4h7.8v9.2h-7.8V244.3c0 4.3.5 4.8 4.8 4.8h3v9.5ZM429.9 404.9v9.4c-4.4.2-8.7.7-13-.2-4.9-1.1-7.2-3.7-7.3-8.6-.1-9.5 0-19 0-28.6v-2h-6.7v-9.2h6.6v-13.4h12.6v13.4h7.8v9.1h-7.8v25.1c0 4.4.5 4.9 5 5h2.8ZM287.9 53.9v7.5s.2.2.3.2c3.4-6.2 8.2-9.7 15.6-8.8v12.8c-1.7 0-3.4-.1-5.1 0-6.8.7-9.9 3.9-10.1 10.7-.2 8 0 16 0 24v1.9h-12.8V53.8h12.1ZM644.6 258.1h-12.7v-48.5h12v8.1c1.2-1.7 2.1-3 3.1-4.2 3-3.9 7.2-5.2 11.9-5.1.4 0 1.1.4 1.1.7v12.5c-2.3 0-4.4-.3-6.5 0-5.4.8-8.2 3.9-8.6 9.3-.2 2.4-.2 4.7-.2 7.1v20.1ZM347.3 413.9h-12.7v-48.4h12.7v48.4ZM514.6 209.6h12.7v48.5h-12.7v-48.5ZM334.6 347.9h12.7v11.7h-12.7v-11.7ZM514.5 203.8v-11.6h12.7v11.6h-12.7ZM135.6 224.7h-3.2c-.3 0-.5-.4-.8-.6.3-.2.5-.7.8-.7h6.4c.3 0 .5.4.8.6-.3.2-.6.6-.9.7h-3ZM113.4 113.1l.5-.5c.2.1.4.2.5.3 1.6 1.6 3.1 3.2 4.7 4.7.7.7.6 1.1-.2 1.5-1.8-1.9-3.6-3.8-5.5-5.9ZM7.9 224.6H.4c-.3-1.2-.3-1.2.8-1.3h5.9c.4 0 .8.5 1.1.8 0 .1-.2.3-.3.4ZM118.3 328.8c.3.3.6.5.9.8-1.9 1.8-3.7 3.5-5.6 5.3-.5-.3-.9-.6-.1-1.4 1.6-1.5 3.1-3.1 4.8-4.7ZM25.9 113c.7.4.9.8.1 1.5-1.7 1.6-3.2 3.2-4.9 4.9-.3-.3-.6-.6-1-.9 2-1.9 3.8-3.6 5.8-5.5ZM118.5 416.8c.3-.4.5-.7.7-1h.4c1.8 1.3 3.5 2.7 5.3 4 .9.7.6 1.1-.2 1.6-2.1-1.6-4.1-3.2-6.2-4.8ZM25.9 422.1c.7.4.8.8 0 1.5-1.6 1.5-3.2 3.2-4.9 4.8-.3-.3-.6-.5-.9-.8 1.9-1.9 3.8-3.7 5.7-5.6ZM26.7 25.5c-.5.3-.8.5-1.3.8-1.7-1.8-3.4-3.6-5.5-5.7.7 0 1.4-.2 1.6 0 1.7 1.5 3.3 3.1 5.2 4.9ZM27.8 434.3c-.4-.3-.7-.6-1.1-.8 1.6-2.1 3.2-4.1 4.8-6.3.4.2.7.5 1.1.7-1.6 2.1-3.2 4.2-4.9 6.4ZM112.6 124.7c-.3.3-.6.5-1.1.9-1.5-2-3-3.9-4.4-5.9-.2-.3.1-.9.2-1.3h.5l4.8 6.3ZM129.4 395.2c.1-.4.2-.8.4-1.3 2.3.6 4.6 1.2 6.8 1.9.3 0 .4.5.7.8-.3.2-.7.5-1 .5-2.3-.6-4.5-1.2-6.8-1.8ZM129.3 85.6c.4-.2.9-.6 1.2-.5 2.2.5 4.4 1.2 6.6 1.8.1.9 0 1.4-1 1.1-2.2-.6-4.4-1.2-6.7-1.8 0-.2-.1-.4-.2-.6ZM119.4 261.3c2 1.6 4 3.1 6.1 4.8-.3.4-.5.7-.8 1.1-1.9-1.5-3.8-2.8-5.6-4.3-.3-.2-.2-.9-.4-1.4.2 0 .4 0 .6-.1ZM31.6 118c.4.3.7.5 1.1.9-1.6 2.1-3.2 4.2-4.9 6.3-.4-.3-.7-.6-1.1-.9 1.6-2.1 3.2-4.2 4.9-6.3ZM118.4 19.7l.9.9c-1.8 1.8-3.6 3.5-5.4 5.3-.8-.4-1.1-.8-.3-1.6 1.6-1.5 3.1-3 4.8-4.6ZM129.8 239.4c2.5.7 4.9 1.3 7.3 2 .1 1 0 1.4-1.1 1.1-1.9-.6-3.9-1.1-5.8-1.6-1-.2-.9-.7-.4-1.5ZM9.2 258.2c2.2-1.3 4.4-2.5 6.7-3.9.2.4.5.7.8 1.1-2.2 1.3-4.2 2.5-6.3 3.6-.3.2-.9-.2-1.3-.3 0-.2 0-.4.1-.5ZM14.7 421.2c-.3-.4-.6-.7-.9-1.1l6.3-4.8c.3.3.5.6.9 1-2.2 1.6-4.2 3.2-6.3 4.8ZM129.7 105.2c-2.3-1.3-4.5-2.6-6.7-3.9.2-1 .6-1.3 1.5-.7 1.7 1 3.5 2.1 5.2 3 .9.5.7.9 0 1.6ZM9.7 413.9c-.3-.4-.5-.7-.6-1 .1-.1.2-.2.4-.3 1.9-1.1 3.8-2.2 5.7-3.4 1-.6 1.1 0 1.4.8-2.3 1.3-4.5 2.6-6.9 4ZM2.5 396.4c2.3-.6 4.5-1.3 6.8-1.8.4 0 .8.4 1.3.6 0 .2-.1.3-.2.5-2.5.7-4.9 1.4-7.5 2.1-.1-.4-.2-.8-.4-1.3ZM12.8 94c-2.1.9-4.2 1.7-6.2 2.6-.8.4-1.2.2-1.3-.9 2.1-.9 4.2-1.8 6.4-2.7.3-.1.8.3 1.3.4 0 .2-.1.4-.2.6ZM27.2 169c.4-.3.7-.5 1.1-.8 1.6 2.1 3.1 4.1 4.7 6.1-.4.3-.7.5-1.1.8-1.6-2-3.1-4-4.6-6.1ZM127.4 246.9c2.4 1 4.7 1.9 7.2 2.9-.2.5-.3.8-.5 1.3-2.2-.9-4.3-1.8-6.4-2.6-.9-.4-.9-.4-.3-1.6ZM32.1 272.7c0 .4.2 1 0 1.3-1.4 1.9-2.9 3.8-4.4 5.7-.4-.3-.7-.6-1-.9 1.6-2.1 3.2-4.1 4.8-6.2h.6ZM127.4 92.3c2.4 1 4.7 1.9 7.2 2.9-.2.5-.3.9-.5 1.3-2.2-.9-4.3-1.8-6.4-2.6-1-.4-1-.8-.3-1.6ZM20.2 260.8c.3.4.5.7.8 1.1-2.1 1.6-4.1 3.1-6.3 4.8-.3-.4-.6-.7-.9-1.1 2.1-1.6 4.2-3.2 6.4-4.8ZM12.4 247.3c.5.7.8 1.1-.2 1.6-2.1.9-4.3 1.8-6.4 2.7-.6-.7-.8-1.2.2-1.6 2.1-.9 4.3-1.8 6.4-2.7ZM119.6 187.1c-.8-.6-1-1-.1-1.7 1.6-1.1 3-2.4 4.6-3.5.3-.2 1 0 1.4 0 0 .2 0 .4.1.5-2 1.5-4 3-6.1 4.6ZM130.4 258.6c-.2.4-.4.7-.7 1.2-2.3-1.3-4.5-2.6-6.7-3.9.1-.9.4-1.3 1.4-.8 2 1.2 4 2.3 6 3.5ZM107 427.7c.4.1 1 0 1.2.3 1.5 1.8 2.9 3.7 4.4 5.7-.4.3-.7.5-1.1.9l-4.8-6.3c0-.2.1-.4.2-.6ZM112.7 169.4c-1.6 2-3.1 4-4.5 5.9-1.1-.7-1.2-.7-.5-1.6 1.1-1.5 2.3-2.9 3.4-4.4.6-.9 1.1-.7 1.7.1ZM134.1 405.6c-2.2-.9-4.3-1.8-6.4-2.6-1-.4-.9-.8-.3-1.6 2.4 1 4.7 1.9 7.2 3-.2.5-.3.9-.5 1.3ZM5.8 42.5c2 .8 4.1 1.6 6.1 2.5.4.2.5.8.8 1.2l-.4.4c-2.2-.9-4.3-1.8-6.5-2.7-.3-.1-.3-.7-.5-1.1.2 0 .3-.2.5-.3ZM20 106.4c.9.6.9 1 .2 1.6-1.9 1.4-3.7 2.8-5.6 4.2-.3-.3-.5-.6-.9-1l6.3-4.8ZM10 85.3c.1.5.2.8.4 1.3l-7.5 2.1c-.5-.8-.6-1.3.5-1.6 2.1-.5 4.3-1.2 6.6-1.8ZM21.2 185.8c-.3.4-.6.7-.9 1-2-1.6-4-3.1-6.1-4.7.3-.4.6-.7.9-1.1 2.1 1.6 4 3.1 6.1 4.7ZM126.5 199.6c2.5-1.1 4.8-2 7.2-3 .2.4.3.7.6 1.2-2.4 1-4.7 2-7.1 3-.2-.4-.4-.7-.7-1.2ZM138.9 77.5c.3 1 0 1.5-1 1.3-2-.3-4-.5-6-.9-.3 0-.6-.6-.9-.9.1-.1.2-.3.3-.4l7.5.9ZM131.3 385.7c2.7.3 5.1.6 7.7.9.2.9.1 1.5-1 1.3-2.2-.3-4.4-.6-6.7-.9v-1.3ZM.9 388.1c-.4-.8-.4-1.3.6-1.4 2-.2 4-.6 6-.8.3 0 .7.3 1 .5-.3.3-.5.7-.8.8-2.3.3-4.6.6-6.8.9ZM34.5 164.1c.4-.2.7-.4 1.2-.7 1.2 2 2.3 3.9 3.4 5.9.2.3-.1.9-.2 1.3h-.5c-1.2-2.2-2.5-4.3-3.8-6.5ZM138.7 59.8c0 .4.2.8.3 1.3-2.6.4-5 .7-7.6 1-.2-.7-.7-1.3.5-1.5 2.2-.3 4.5-.6 6.8-.8ZM10.3 241.2c-2.4.7-4.9 1.3-7.4 2-.1-.4-.3-.8-.4-1.3 2.4-.7 4.6-1.3 6.8-1.9.3 0 .8.4 1.2.6 0 .2-.2.3-.3.5ZM12.8 403c-2.1.9-4.2 1.8-6.3 2.6-.4.1-.9-.2-1.4-.3v-.6c2.2-.9 4.3-1.9 6.5-2.7.3-.1.8.3 1.2.4 0 .2-.1.4-.2.6ZM129.8 34.1c.2.4.4.7.7 1.2-2.1 1.2-4.1 2.4-6.2 3.5-.3.1-.8-.3-1.2-.4V38c2.2-1.3 4.4-2.5 6.7-3.8ZM123.8 348.2c-.3-.4-.4-.8-.7-1.2 2.3-1.3 4.4-2.6 6.7-3.8.2.4.4.8.7 1.2-2.2 1.3-4.3 2.5-6.7 3.9ZM16.6 100.9c-2.2 1.3-4.2 2.5-6.3 3.6-.3.2-.9-.2-1.3-.3v-.5c2.2-1.3 4.4-2.6 6.8-3.9.2.4.5.7.8 1.1ZM119.3 106.7c2.1 1.6 4.1 3.2 6.1 4.7-.3.9-.6 1.3-1.5.6-1.6-1.3-3.2-2.5-4.8-3.7-.8-.6-.6-1.1.2-1.6ZM.9 214.6c2.4.3 4.6.5 6.8.8 1.1.1 1.1.6.6 1.5-2.4-.3-4.9-.7-7.5-1 0-.4 0-.8.1-1.3ZM130.3 413.1c-.2 1.1-.7 1.2-1.4.8-1.9-1.2-3.9-2.3-5.9-3.5.2-.8.4-1.4 1.4-.8 2 1.2 4 2.3 6 3.5ZM131.4 231.2c2.6.3 5 .6 7.6.9 0 .9 0 1.5-1.1 1.3-1.9-.3-3.9-.5-5.9-.7-1-.1-1-.6-.6-1.4ZM129.3 53.3c.3-.4.4-1 .8-1.1 2.1-.7 4.3-1.2 6.5-1.8.1 0 .3.2.4.3-.2.4-.3 1-.6 1.1-2.2.7-4.4 1.3-6.6 1.9-.1-.1-.3-.2-.4-.3ZM8.3 62.3c-2.3-.3-4.5-.5-6.7-.9-.4 0-.6-.7-1-1 .1-.1.2-.3.3-.4 2.3.3 4.5.6 6.8.8 1 .1 1 .6.6 1.5ZM.9 79.1c-.5-1-.3-1.4.7-1.5 2.2-.2 4.4-.6 6.6-.8.5.9.4 1.3-.6 1.5-2.2.2-4.4.6-6.7.9ZM131.3 371.2c0-.5 0-.9-.1-1.4 2.6-.3 5-.7 7.5-1 .4.8.5 1.4-.6 1.5-2.2.2-4.4.5-6.8.9ZM85.9 164.5c-.2-.4-.6-.9-.5-1.3.5-2.1 1.1-4.3 1.7-6.4.2 0 .3-.1.5-.2.2.4.7.9.6 1.2-.5 2.2-1.2 4.4-1.8 6.5-.2 0-.4.1-.6.2ZM12.2 201.1c-2.3-.9-4.5-1.9-6.9-2.8 0-.8 0-1.5 1.1-1 1.9.8 3.8 1.5 5.6 2.3.3.2.4.8.6 1.2-.2 0-.3.2-.5.3ZM129.3 362.2c.3-.4.4-.9.8-1.1 2.2-.7 4.4-1.3 6.5-1.9l.4.3c-.2.4-.3 1-.6 1.1-2.2.7-4.4 1.3-6.5 1.9-.2-.1-.3-.3-.5-.4ZM93.9 167c-.4-.2-.8-.3-1.3-.5 1-2.4 1.9-4.7 2.9-7 .2 0 .3-.1.5-.2.2.4.6 1 .5 1.3-.8 2.1-1.7 4.2-2.6 6.3ZM61.5.6c.3 2.5.7 4.9 1 7.3-.9.4-1.4.5-1.5-.7-.2-1.8-.4-3.6-.7-5.4-.1-.9 0-1.4 1.2-1.2ZM104.3 318.2c.4.2.7.4 1.2.7-1.3 2.2-2.5 4.3-3.8 6.5l-1.2-.6c1.3-2.2 2.5-4.3 3.9-6.6ZM112.6 279.2c-.5.3-.7.5-1 .7-.1 0-.2 0-.3-.2-1.3-1.7-2.7-3.5-4-5.2-.6-.7-.6-1.2.5-1.6 1.5 2 3.1 4.1 4.8 6.3ZM16.1 347.8c-2-1.2-4-2.3-6-3.5-.3-.2-.3-.8-.4-1.3.1 0 .3-.1.4-.2 2 1.2 4 2.3 5.9 3.5.3.2.2.9.4 1.3-.1 0-.3.1-.4.2ZM.6 233.3c.3-.3.5-.9.9-1 2-.4 4.1-.6 6.2-.8.3 0 .6.4 1 .6-.3.2-.5.6-.8.6-2.3.4-4.6.7-6.9 1-.1-.1-.2-.3-.3-.4ZM137.1 205.3c-.3.4-.5.9-.8 1-1.9.6-3.8 1.2-5.7 1.6-.3 0-.8-.3-1.2-.4.3-.3.5-.8.8-.9 2.2-.6 4.3-1.2 6.5-1.8.1.1.2.3.4.4ZM119.1 341.5c0-.4-.2-1.1 0-1.3 1.8-1.5 3.7-2.9 5.6-4.3.9.6.9 1.1.1 1.7-1.7 1.3-3.5 2.6-5.2 3.9h-.5ZM112.7 323.8c-1.6 2.1-3.1 4-4.6 6-1.2-.7-1.2-.7-.5-1.6 1.1-1.4 2.2-2.9 3.3-4.3.6-.8.7-.8 1.8 0ZM62.1 317.4c-.3-.3-.9-.6-1-.9-.3-2.2-.6-4.4-.9-6.7.4 0 .8-.1 1.3-.2.3 2.6.7 5 1 7.4l-.4.4ZM138.9 215.7c-2.5.3-5 .7-7.6 1 0-.5-.1-.9-.2-1.3 2.4-.3 4.7-.7 7-.9.3 0 .7.5 1.1.7 0 .2-.2.4-.3.5ZM133.7 42l.6 1.2c-2.2.9-4.3 1.8-6.5 2.6-.3.1-.8-.2-1.3-.4v-.5c2.3-1 4.7-2 7.1-3ZM96.8 314.6c-1 2.3-1.9 4.6-2.9 6.9-.4-.2-.8-.3-1.3-.5.9-2.1 1.7-4.1 2.5-6.1.4-1 .8-1 1.6-.3ZM42.4 314.7c.4-.2.8-.4 1.1-.5.1.1.2.2.3.2.8 1.9 1.6 3.9 2.4 5.8.4.9 0 1.3-.9 1.3-.9-2.3-1.9-4.5-2.9-6.9ZM2.4 361.1c.1-.5.2-.8.4-1.3 2.5.7 5 1.3 7.4 2 0 .2 0 .4.1.6-.4.2-.9.6-1.3.5-2.2-.5-4.3-1.1-6.6-1.7ZM34.9 318.2c.4.2 1.1.2 1.3.6 1 1.6 1.9 3.3 2.9 4.9.5.8.4 1.3-.8 1.4-1.2-2.1-2.4-4.2-3.7-6.3 0-.2.2-.4.3-.6ZM28.4 322.8l4.5 6c-.6.8-1.1 1-1.7 0-1.1-1.5-2.2-3-3.4-4.4-.7-.8-.4-1.2.5-1.6ZM101.6 171c-.4-.3-.8-.5-1.2-.7 1.3-2.2 2.5-4.3 3.8-6.6.4.2.7.4 1.2.6-1.3 2.2-2.5 4.4-3.9 6.7ZM133.8 351c.2.4.3.8.6 1.2-2.2.9-4.3 1.8-6.5 2.6-.3.1-.8-.3-1.3-.4v-.5c2.3-1 4.7-2 7.1-3ZM5.8 351.6c2.1.8 4.1 1.6 6.1 2.5.3.2.5.8.7 1.2-.1.1-.3.2-.4.3-2.2-.9-4.4-1.8-6.5-2.7-.3-.1-.3-.8-.4-1.2.2 0 .3-.1.5-.2ZM53.6 10c-.4-.3-1-.5-1.1-.9l-1.8-6.3c.4-.1.8-.3 1.3-.4.7 2.5 1.4 4.8 2 7.2-.1.2-.3.3-.4.5ZM60.2 155.2c.5 0 .8 0 1.3-.1.3 2.5.7 5 1 7.4-1 .5-1.4.3-1.5-.8-.2-2.1-.5-4.2-.8-6.5ZM10.3 207.9c-.4.2-.9.5-1.2.5-2-.4-4-1-6-1.6-.3 0-.4-.8-.7-1.2.1-.1.2-.2.4-.3 2.4.7 4.9 1.3 7.3 2 0 .2.1.4.2.6ZM1 369.1c2.2.3 4.4.5 6.6.8.3 0 .6.6.9.9-.3.2-.7.5-1 .5-2-.2-4-.5-6-.8-1-.1-.9-.7-.5-1.4ZM125.5 28l-6 4.5c-.7-.6-1.1-1-.1-1.7 1.6-1.1 3.1-2.3 4.6-3.5.8-.6 1.1-.3 1.5.6ZM14.3 27.6c.3-.4.5-.7.8-1.1 2 1.6 4 3.1 6.1 4.6-.4.8-.7 1.2-1.5.6-1.7-1.4-3.5-2.7-5.3-4.1ZM10.3 188.4c1.9 1.1 3.8 2.2 5.7 3.4.3.2.4.9.6 1.3-.2 0-.3.2-.5.3-2-1.2-4-2.3-6-3.5-.3-.2-.3-.9-.4-1.3.2 0 .4 0 .5-.1ZM16.8 37.6c-.3.4-.4.8-.7 1.2-2.2-1.3-4.4-2.6-6.5-3.8.2-.8.4-1.4 1.3-.8 1.9 1.2 3.8 2.2 5.9 3.5ZM15.2 335.6c2 1.5 4 3.1 6 4.6-.3.4-.6.6-.9 1-1.8-1.4-3.7-2.8-5.4-4.2-.3-.2-.2-.9-.3-1.3.2 0 .4-.1.6-.2ZM95.5 4.9c.5.2.8.3 1.1.5v.3c-.8 2-1.6 3.9-2.4 5.9-.4 1-.9.9-1.6.3.9-2.3 1.9-4.5 2.9-7ZM21.1 274.2l-1-1c2-1.9 3.9-3.7 6-5.8 0 .6.2 1.3 0 1.5-1.6 1.8-3.2 3.4-5 5.3ZM43.6 159.6c.9 2.2 1.8 4.2 2.5 6.2.1.3-.2.8-.3 1.2-.3-.2-.8-.4-.9-.7-.9-2-1.7-4.1-2.6-6.2.4-.2.8-.3 1.2-.6ZM10.3 53.2c-.4.2-.8.7-1.2.6-2-.4-4-1-6-1.6-.3 0-.4-.6-.6-.9.3-.1.7-.5.9-.4 2.2.6 4.4 1.2 6.7 1.8 0 .1.1.3.2.4ZM42.6 5.3c.4.1 1.1.2 1.3.4.9 2.1 1.8 4.2 2.7 6.4-.5.2-.8.3-1.2.5-1-2.3-1.9-4.6-2.9-6.8 0-.2.1-.3.2-.5ZM77 7.9c.3-2.5.6-4.9.9-7.3 1-.3 1.4 0 1.3 1-.3 1.9-.5 3.8-.8 5.7-.1 1-.6 1-1.4.6ZM51.2 156.8c.3.3.9.5 1 .9.6 1.9 1.1 3.8 1.6 5.7 0 .4-.3.9-.5 1.3-.2 0-.4 0-.6-.1l-2-7.2.5-.5ZM27.4 14.6c.6-1 1.1-.9 1.7-.1 1.3 1.7 2.6 3.5 3.9 5.2-.6.8-1 1-1.7 0-1.2-1.7-2.5-3.4-3.9-5.1ZM79.3 155.2c-.3 2.5-.6 4.9-1 7.3-.9.3-1.4.1-1.2-.9.3-1.9.4-3.7.7-5.6.1-1 .2-1 1.5-.8ZM101.6 16.4l-1.2-.6c1.3-2.2 2.5-4.4 3.8-6.6.4.2.7.4 1.2.6-1.3 2.2-2.5 4.3-3.8 6.6ZM123.8 193.7c-.3-.4-.5-.7-.7-1.1 2.3-1.3 4.4-2.6 6.6-3.8.2 0 .3.1.5.2-.1.4-.1 1.1-.4 1.3-1.9 1.2-3.9 2.3-6 3.4ZM50.7 311.8c.4-.2.7-.3 1.1-.4.1.1.2.2.2.3.6 2 1.2 4.1 1.7 6.1 0 .3-.2.7-.3 1.1-.3-.2-.9-.4-1-.7-.6-2.1-1.2-4.2-1.8-6.4ZM86 319c-.2-.4-.6-.9-.5-1.3.4-1.9.9-3.7 1.5-5.5.1-.3.6-.5 1-.8.1.4.4.8.3 1.1-.5 2.1-1.2 4.3-1.7 6.4-.2 0-.4 0-.5.1ZM77 316.9c.3-2.2.5-4.4.8-6.6 0-.4.6-.6 1-.9.2.1.3.2.5.3-.3 2.3-.6 4.6-.9 7 0 .3-.6.4-1 .6l-.3-.4ZM119.7 427.5l-.8.8c-2-2-3.8-3.9-5.7-5.8.2-.3.5-.6.7-.9 1.9 2 3.7 3.8 5.7 5.9ZM38.3 16.1c-1.2-2.1-2.5-4.3-3.7-6.5.4-.2.7-.4 1.2-.7 1.2 2 2.3 4 3.4 6 .2.3-.1.9-.2 1.3h-.6ZM20 329.9c.4-.3.7-.6 1-.8 1.7 1.9 3.4 3.7 5.3 5.6-.3.6-.7.8-1.5 0-1.5-1.6-3-3.1-4.8-4.8ZM108.1 20.8c-.4-.3-.7-.6-1-.9 1.4-1.9 2.7-3.7 4.2-5.4.2-.3.9-.1 1.4-.2 0 .2 0 .3.1.5-1.5 2-3 4-4.6 6ZM87.7 2.1c.2.4.6.9.5 1.3-.5 2.1-1.1 4.2-1.8 6.8-.5-.6-1.1-1-1-1.3.5-2.2 1.2-4.4 1.8-6.7.2 0 .4 0 .6-.1ZM118.8 273.6c-1.8-1.8-3.6-3.7-5.3-5.5.7-1 .7-1 1.5-.3 1.4 1.4 2.9 2.8 4.2 4.3.3.3.2.9.3 1.4-.2 0-.4 0-.6.1ZM26.7 180.3c-.8 0-1.5.3-1.7 0-1.7-1.5-3.3-3.2-5.1-4.9l1-1 5.9 5.9ZM113 179.5c1.8-1.7 3.5-3.4 5.4-5.2.2.2.5.5 1.1 1-1.8 1.7-3.4 3.3-5.2 4.8-.3.2-.9 0-1.3 0v-.6ZM139.3 379.2h-6.8c-.3 0-.6-.4-.9-.7.3-.2.6-.5.9-.6h6.2c.3 0 .7.5 1 .8-.1.2-.3.3-.4.5ZM139.7 69.3c-.4.3-.7.7-1.1.8h-6.1c-.3 0-.6-.4-1-.6.3-.2.6-.6.9-.6h6.8c.1.2.2.3.4.5ZM0 378.7c.3-.3.7-.8 1-.8h6.1c.3 0 .6.4.9.6-.3.2-.6.6-1 .6H.3c-.1-.2-.3-.3-.4-.5ZM.4 68.9h7.5c0 .1.2.2.3.4-.3.3-.6.8-1 .8H1c-.3 0-.7-.5-1-.8l.4-.4ZM69.2 3.8v-3c0-.3.4-.5.6-.8.2.3.6.5.6.8V7c0 .2-.4.5-.7.7-.2-.3-.6-.5-.6-.8v-3ZM69.2 312.8v-3c0-.3.4-.5.6-.8.2.3.6.5.6.8v6.2c0 .2-.4.5-.5.7-.2-.2-.7-.4-.7-.7v-3.2ZM70.4 154.7v7.3c-.9.3-1.3.2-1.3-.8v-5.8c0-.4.5-.7.8-1.1.2.1.3.2.5.4Z"/>
</svg>
